<svg xmlns="http://www.w3.org/2000/svg" width="24" height="24"
     viewBox="0 0 48 48">

  <!-- Outer border -->
  <rect x="2" y="2" width="44" height="44" rx="6"
        fill="none" stroke="#4b5563" stroke-width="3.5" />

  <!-- Scaled blue shield
       True visual 9px margin: from y≈9 to y≈39 -->
  <path d="
      M24 9
      L34 13
      V25
      C34 31 29.8 35.5 24 39
      C18.2 35.5 14 31 14 25
      V13
      Z"
        fill="white"
        stroke="#2563eb"
        stroke-width="2.8"
        stroke-linecap="round"
        stroke-linejoin="round" />

  <!-- Centered green dollar sign, scaled upward -->
  <g fill="none" stroke="#16a34a" stroke-width="2.6"
     stroke-linecap="round" stroke-linejoin="round">

    <!-- Vertical stroke -->
    <line x1="24" y1="15" x2="24" y2="32" />

    <!-- Proper S-curve -->
    <path d="
      M27 19.0
      c -1.0 -1.0 -2.0 -1.5 -3.2 -1.5
      c -2.0 0 -3.5 1.1 -3.5 2.8
      c 0 1.8 1.4 2.7 3.3 2.7
      c 1.2 0 2.3 0.3 3.2 1.1
      c 0.8 0.8 1.2 1.6 1.2 2.5
      c 0 2.0 -1.6 3.1 -3.7 3.1
      c -1.3 0 -2.5 -0.5 -3.5 -1.4" />
  </g>
</svg>