<svg xmlns="http://www.w3.org/2000/svg" width="24" height="24"
     viewBox="0 0 48 48">
  <!-- Rounded border -->
  <rect x="2" y="2" width="44" height="44" rx="6" ry="6"
        fill="none" stroke="#4b5563" stroke-width="3.5" />
  <g transform="translate(3,3)">
    <!-- Outer ring -->
    <circle cx="12" cy="12" r="6.5"
            fill="none" stroke="#111827" stroke-width="1.5" />

    <!-- Inner ring -->
    <circle cx="12" cy="12" r="3.5"
            fill="none" stroke="#6b7280" stroke-width="1.3" />

    <!-- Crosshairs -->
    <line x1="12" y1="6" x2="12" y2="9"
          stroke="#9ca3af" stroke-width="1.2" stroke-linecap="round" />
    <line x1="12" y1="15" x2="12" y2="18"
          stroke="#9ca3af" stroke-width="1.2" stroke-linecap="round" />
    <line x1="6" y1="12" x2="9" y2="12"
          stroke="#9ca3af" stroke-width="1.2" stroke-linecap="round" />
    <line x1="15" y1="12" x2="18" y2="12"
          stroke="#9ca3af" stroke-width="1.2" stroke-linecap="round" />

    <!-- Center dot -->
    <circle cx="12" cy="12" r="1.2"
            fill="#ef4444" />
  </g>

  <g transform="translate(20,3)">
    <!-- Outer ring -->
    <circle cx="12" cy="12" r="6.5"
            fill="none" stroke="#111827" stroke-width="1.5" />

    <!-- Inner ring -->
    <circle cx="12" cy="12" r="3.5"
            fill="none" stroke="#6b7280" stroke-width="1.3" />

    <!-- Crosshairs -->
    <line x1="12" y1="6" x2="12" y2="9"
          stroke="#9ca3af" stroke-width="1.2" stroke-linecap="round" />
    <line x1="12" y1="15" x2="12" y2="18"
          stroke="#9ca3af" stroke-width="1.2" stroke-linecap="round" />
    <line x1="6" y1="12" x2="9" y2="12"
          stroke="#9ca3af" stroke-width="1.2" stroke-linecap="round" />
    <line x1="15" y1="12" x2="18" y2="12"
          stroke="#9ca3af" stroke-width="1.2" stroke-linecap="round" />

    <!-- Center dot -->
    <circle cx="12" cy="12" r="1.2"
            fill="#ef4444" />
  </g>

  <g transform="translate(3,20)">
    <!-- Outer ring -->
    <circle cx="12" cy="12" r="6.5"
            fill="none" stroke="#111827" stroke-width="1.5" />

    <!-- Inner ring -->
    <circle cx="12" cy="12" r="3.5"
            fill="none" stroke="#6b7280" stroke-width="1.3" />

    <!-- Crosshairs -->
    <line x1="12" y1="6" x2="12" y2="9"
          stroke="#9ca3af" stroke-width="1.2" stroke-linecap="round" />
    <line x1="12" y1="15" x2="12" y2="18"
          stroke="#9ca3af" stroke-width="1.2" stroke-linecap="round" />
    <line x1="6" y1="12" x2="9" y2="12"
          stroke="#9ca3af" stroke-width="1.2" stroke-linecap="round" />
    <line x1="15" y1="12" x2="18" y2="12"
          stroke="#9ca3af" stroke-width="1.2" stroke-linecap="round" />

    <!-- Center dot -->
    <circle cx="12" cy="12" r="1.2"
            fill="#ef4444" />
  </g>

  <g transform="translate(20,20)">
    <!-- Outer ring -->
    <circle cx="12" cy="12" r="6.5"
            fill="none" stroke="#111827" stroke-width="1.5" />

    <!-- Inner ring -->
    <circle cx="12" cy="12" r="3.5"
            fill="none" stroke="#6b7280" stroke-width="1.3" />

    <!-- Crosshairs -->
    <line x1="12" y1="6" x2="12" y2="9"
          stroke="#9ca3af" stroke-width="1.2" stroke-linecap="round" />
    <line x1="12" y1="15" x2="12" y2="18"
          stroke="#9ca3af" stroke-width="1.2" stroke-linecap="round" />
    <line x1="6" y1="12" x2="9" y2="12"
          stroke="#9ca3af" stroke-width="1.2" stroke-linecap="round" />
    <line x1="15" y1="12" x2="18" y2="12"
          stroke="#9ca3af" stroke-width="1.2" stroke-linecap="round" />

    <!-- Center dot -->
    <circle cx="12" cy="12" r="1.2"
            fill="#ef4444" />
  </g>

  <g transform="translate(11.5,11.5)">
    <!-- Outer ring -->
    <circle cx="12" cy="12" r="6.5"
            fill="none" stroke="#111827" stroke-width="1.5" />

    <!-- Inner ring -->
    <circle cx="12" cy="12" r="3.5"
            fill="none" stroke="#6b7280" stroke-width="1.3" />

    <!-- Crosshairs -->
    <line x1="12" y1="6" x2="12" y2="9"
          stroke="#9ca3af" stroke-width="1.2" stroke-linecap="round" />
    <line x1="12" y1="15" x2="12" y2="18"
          stroke="#9ca3af" stroke-width="1.2" stroke-linecap="round" />
    <line x1="6" y1="12" x2="9" y2="12"
          stroke="#9ca3af" stroke-width="1.2" stroke-linecap="round" />
    <line x1="15" y1="12" x2="18" y2="12"
          stroke="#9ca3af" stroke-width="1.2" stroke-linecap="round" />

    <!-- Center dot -->
    <circle cx="12" cy="12" r="1.2"
            fill="#ef4444" />
  </g>
</svg>