<svg xmlns="http://www.w3.org/2000/svg" width="24" height="24"
     viewBox="0 0 48 48">
  <!-- Rounded border -->
  <rect x="2" y="2" width="44" height="44" rx="6" ry="6"
        fill="none" stroke="#4b5563" stroke-width="3.5" />

  <g stroke="#2563eb" stroke-width="3" fill="none" stroke-linejoin="round">
    <circle cx="24" cy="24" r="9" />

    <!--    <path d="M24 10v3M24 35v3M10 24h3M35 24h3" /> -->
    <!--    <path d="M14.3 14l2.3 2.3M31.5 31.5l2.3 2.3" /> -->
    <!--    <path d="M14.3 34l2.3-2.3M32 16l2.3-2.3" /> -->
  </g>

  <g fill="#2563eb">
    <rect  x="21.5" y="7" width="5" height="5" stroke-width="6" />
    <rect  x="21.5" y="36" width="5" height="5" stroke-width="6" />
    <rect  x="7" y="21.5" width="5" height="5" stroke-width="6" />
    <rect  x="36" y="21.5" width="5" height="5" stroke-width="6" />
    <rect  x="16.5" y="-3" width="5" height="5" stroke-width="6" transform="rotate(45)" />
    <rect  x="46.5" y="-3" width="5" height="5" stroke-width="6" transform="rotate(45)" />
    <rect  x="31.5" y="-17.5" width="5" height="5" stroke-width="6" transform="rotate(45)" />
    <rect  x="31.5" y="13" width="5" height="5" stroke-width="6" transform="rotate(45)" />
  </g>
</svg>